<?xml version="1.0" encoding="utf-8"?>
<!-- Generator: Adobe Illustrator 25.4.1, SVG Export Plug-In . SVG Version: 6.00 Build 0)  -->
<svg version="1.1" id="Layer_1" xmlns="http://www.w3.org/2000/svg" xmlns:xlink="http://www.w3.org/1999/xlink" x="0px" y="0px"
	 viewBox="0 0 556.6 480.9" style="enable-background:new 0 0 556.6 480.9;" xml:space="preserve">
<style type="text/css">
	.st0{fill:#f7a072;}
</style>

			<circle class="st0" cx="287.5" cy="416.7" r="6.7"/>
	


	
		
			<circle class="st0" cx="304" cy="435.9" r="4.1"/>
		
	


	
		
			<circle class="st0" cx="390.7" cy="444.1" r="10.9"/>
		
	


	
		
			<circle class="st0" cx="366.3" cy="461.2" r="3.1"/>
		
	


	
		
			<circle class="st0" cx="317.6" cy="401.2" r="5.2"/>
		
	


	
		
			<circle class="st0" cx="333.9" cy="364.9" r="8.1"/>
		
	


	
				<circle class="st0" cx="325.8" cy="388.3" r="3"/>
	


	
		
			<circle class="st0" cx="359.6" cy="375.1" r="4.8"/>
		
	


	
		
			<circle class="st0" cx="383.6" cy="377.9" r="3.5"/>
		
	


	
		
			<circle class="st0" cx="391.8" cy="394.4" r="3.8"/>
		
	


	
		
			<circle class="st0" cx="403.3" cy="404.1" r="5.1"/>
		
	


	
		
			<circle class="st0" cx="419.4" cy="383.7" r="6.9"/>
		
	


	
		
			<circle class="st0" cx="402.5" cy="374.4" r="2.3"/>
		
	


	
		
			<circle class="st0" cx="442.1" cy="376.7" r="3.4"/>
		
	


	
		
			<circle class="st0" cx="478.2" cy="400.9" r="8.3"/>
		
	


	
		
			<circle class="st0" cx="504.5" cy="400.9" r="3.2"/>
		
	


	
		
			<circle class="st0" cx="497.3" cy="406.8" r="2.4"/>
		
	


	
		
			<circle class="st0" cx="517.2" cy="383.7" r="8.3"/>
		
	


	
		
			<circle class="st0" cx="525.5" cy="357.8" r="5.6"/>
		
	


	
		
			<circle class="st0" cx="506.7" cy="327.3" r="8.4"/>
		
	


	
		
			<circle class="st0" cx="538.6" cy="311.7" r="8.2"/>
		
	


	
		
			<circle class="st0" cx="482.3" cy="303.5" r="5.5"/>
		
	


	
		
			<circle class="st0" cx="433" cy="303.5" r="5.5"/>
		
	


	
		
			<circle class="st0" cx="545.9" cy="284.1" r="9.8"/>
		
	


	
		
			<circle class="st0" cx="506.2" cy="252.6" r="7.9"/>
		
	


	
		
			<circle class="st0" cx="514.1" cy="190.6" r="5.6"/>
		
	


	
		
			<circle class="st0" cx="462" cy="213.7" r="7.3"/>
		
	


	
		
			<circle class="st0" cx="473.6" cy="244.7" r="4.9"/>
		
	


	
		
			<circle class="st0" cx="536.1" cy="202.7" r="5.3"/>
		
	


	
		
			<circle class="st0" cx="522.6" cy="174.6" r="2.8"/>
		
	


	
		
			<circle class="st0" cx="514.1" cy="154" r="5.2"/>
		
	


	
		
			<circle class="st0" cx="401.6" cy="345.8" r="2.8"/>
		
	


	
		
			<circle class="st0" cx="393.9" cy="336.4" r="4.3"/>
		
	


	
		
			
				<ellipse transform="matrix(0.2298 -0.9732 0.9732 0.2298 -38.1389 624.5493)" class="st0" cx="375.5" cy="336.4" rx="4.3" ry="4.3"/>
		
	


	
		
			<circle class="st0" cx="443.1" cy="406.8" r="3.2"/>
		
	


	
		
			<path class="st0" d="M449.5,409.2c0,1.8-1.4,3.2-3.2,3.2s-3.2-1.4-3.2-3.2c0-1.8,1.4-3.2,3.2-3.2S449.5,407.4,449.5,409.2z"/>
		
	


	
		
			
				<ellipse transform="matrix(0.9239 -0.3827 0.3827 0.9239 -96.3055 163.4273)" class="st0" cx="362.6" cy="323.8" rx="3.9" ry="3.9"/>
		
	


	
		
			
				<ellipse transform="matrix(0.9239 -0.3827 0.3827 0.9239 -78.9961 160.3202)" class="st0" cx="363.5" cy="278.7" rx="5.7" ry="5.7"/>
		
	


	
		
			<path class="st0" d="M530.5,339.1c0,1.4-1.1,2.5-2.5,2.5c-1.4,0-2.5-1.1-2.5-2.5c0-1.4,1.1-2.5,2.5-2.5
				C529.3,336.6,530.5,337.7,530.5,339.1z"/>
		
	


	
		
			<circle class="st0" cx="297.6" cy="179.9" r="2.5"/>
		
	

<ellipse transform="matrix(0.9239 -0.3827 0.3827 0.9239 -43.0714 146.6777)" class="st0" cx="347.2" cy="181.6" rx="2.9" ry="2.9"/>

	
		
			
				<ellipse transform="matrix(0.9239 -0.3827 0.3827 0.9239 -26.4359 139.8963)" class="st0" cx="338.4" cy="136.4" rx="5.4" ry="5.4"/>
		
	


	
		
			<circle class="st0" cx="323.9" cy="107.7" r="1.6"/>
		
	


	
		
			<circle class="st0" cx="424" cy="206.4" r="3.5"/>
		
	


	
		
			<circle class="st0" cx="400.9" cy="199.3" r="5.1"/>
		
	


	
		
			<circle class="st0" cx="393.9" cy="239.7" r="4.3"/>
		
	


	
		
			<circle class="st0" cx="383.5" cy="196.2" r="3.1"/>
		
	


	
		
			<circle class="st0" cx="375.5" cy="182.5" r="2.9"/>
		
	


	
		
			<circle class="st0" cx="380.4" cy="170.3" r="5.9"/>
		
	


	
		
			<circle class="st0" cx="395.9" cy="160.5" r="3.9"/>
		
	


	
		
			<circle class="st0" cx="406" cy="170.3" r="2.7"/>
		
	


	
		
			<circle class="st0" cx="400.9" cy="165.1" r="1.9"/>
		
	


	
		
			
				<ellipse transform="matrix(0.7071 -0.7071 0.7071 0.7071 -15.8515 346.8627)" class="st0" cx="410.8" cy="192.6" rx="3.7" ry="3.7"/>
		
	


	
		
			<circle class="st0" cx="440.1" cy="165.1" r="5.2"/>
		
	


	
		
			<circle class="st0" cx="434.1" cy="145.8" r="6.4"/>
		
	


	
		
			<path class="st0" d="M534.7,316.5"/>
		
	


	
		
			<circle class="st0" cx="395.9" cy="131.7" r="2.3"/>
		
	


	
		
			<circle class="st0" cx="398.2" cy="124.4" r="2.1"/>
		
	


	
		
			<circle class="st0" cx="403.3" cy="119.1" r="2.3"/>
		
	


	
		
			<circle class="st0" cx="542.3" cy="223.4" r="3"/>
		
	


	
		
			<circle class="st0" cx="541.8" cy="243.5" r="3"/>
		
	


	
		
			<circle class="st0" cx="539.9" cy="252.6" r="5.7"/>
		
	


	
		
			<circle class="st0" cx="542.8" cy="233.1" r="5.1"/>
		
	


	
		
			<circle class="st0" cx="446.6" cy="193.1" r="2.1"/>
		
	


	
		
			<circle class="st0" cx="486.4" cy="182.5" r="2.5"/>
		
	


	
		
			<circle class="st0" cx="472.5" cy="169.1" r="2.6"/>
		
	


	
		
			<circle class="st0" cx="469.4" cy="151.1" r="3.5"/>
		
	


	
		
			<circle class="st0" cx="459.5" cy="145.6" r="4"/>
		
	


	
		
			<circle class="st0" cx="492.4" cy="123.1" r="5.8"/>
		
	


	
		
			<circle class="st0" cx="489" cy="114.1" r="3.5"/>
		
	


	
		
			<circle class="st0" cx="495.1" cy="130.7" r="4.2"/>
		
	


	
		
			<circle class="st0" cx="498.3" cy="160.8" r="2.5"/>
		
	


	
		
			<circle class="st0" cx="485.5" cy="148.8" r="3.2"/>
		
	


	
		
			<circle class="st0" cx="501.3" cy="177.6" r="1.5"/>
		
	


	
		
			<circle class="st0" cx="484.6" cy="156.5" r="1.9"/>
		
	


	
		<circle class="st0" cx="431.1" cy="126.5" r="4.2"/>
	


	
		<circle class="st0" cx="454.7" cy="94.8" r="5.3"/>
	


	
		<circle class="st0" cx="441.2" cy="67.6" r="4.1"/>
	


	
		<circle class="st0" cx="450.4" cy="78.3" r="3.3"/>
	


	
		<circle class="st0" cx="448.7" cy="125.8" r="3.2"/>
	


	
		<circle class="st0" cx="456.6" cy="130.7" r="3.1"/>
	


	
		<circle class="st0" cx="457.7" cy="116.8" r="3.1"/>
	


	
		<circle class="st0" cx="459.4" cy="109.4" r="3.4"/>
	


	
		<circle class="st0" cx="437.2" cy="119.1" r="4"/>
	


	
		<circle class="st0" cx="410.8" cy="69.6" r="6.4"/>
	


	
		<circle class="st0" cx="421.7" cy="52.9" r="5.3"/>
	


	
		<circle class="st0" cx="412.9" cy="47.7" r="5.9"/>
	


	
		<circle class="st0" cx="429.4" cy="83.9" r="2.6"/>
	


	
		<circle class="st0" cx="423" cy="97.2" r="2.4"/>
	


	
		<circle class="st0" cx="417.2" cy="103.4" r="1.6"/>
	


	
		<circle class="st0" cx="389" cy="42.6" r="5.6"/>
	


	
		<circle class="st0" cx="396" cy="48" r="2.3"/>
	


	
		<circle class="st0" cx="369.3" cy="68.9" r="2.8"/>
	


	
		<circle class="st0" cx="374.5" cy="51.2" r="2.3"/>
	


	
		<circle class="st0" cx="361.8" cy="34.5" r="6"/>
	


	
		<circle class="st0" cx="376.8" cy="37" r="3.6"/>
	


	
		<circle class="st0" cx="343" cy="63.5" r="2.6"/>
	


	
		<circle class="st0" cx="336.7" cy="60.9" r="2.4"/>
	


	
		<circle class="st0" cx="352.8" cy="72.8" r="3"/>
	


	
		<circle class="st0" cx="360.5" cy="67.6" r="3.1"/>
	


	
		<circle class="st0" cx="364.4" cy="53.6" r="2.1"/>
	


	
		<circle class="st0" cx="355.8" cy="50.3" r="2.6"/>
	


	
		<circle class="st0" cx="358.4" cy="182.5" r="2.5"/>
	


	
		<circle class="st0" cx="364.4" cy="167.7" r="2.1"/>
	


	
		<circle class="st0" cx="356.7" cy="163.2" r="2.6"/>
	


	
		<circle class="st0" cx="360.5" cy="103.4" r="2.5"/>
	


	
		<circle class="st0" cx="352.8" cy="89.5" r="3.1"/>
	


	
		<circle class="st0" cx="358.3" cy="84.9" r="3"/>
	


	
		<circle class="st0" cx="362.2" cy="92.9" r="1.4"/>
	


	
		<circle class="st0" cx="372.1" cy="154.7" r="1.9"/>
	


	
		<circle class="st0" cx="314.8" cy="55.7" r="7"/>
	


	
		<circle class="st0" cx="334.3" cy="27" r="4.2"/>
	


	
		<circle class="st0" cx="322.5" cy="21.7" r="5.3"/>
	


	
		<circle class="st0" cx="421.7" cy="120.2" r="3.8"/>
	


	
		<polygon class="st0" points="431.1,127.5 426.5,127.5 421.7,122.1 423.2,120.8 427.4,125.5 431.1,125.5 		"/>
	


	
		<circle class="st0" cx="441.2" cy="101.2" r="2.3"/>
	


	
		<circle class="st0" cx="424.7" cy="80.3" r="1.8"/>
	


	
		<circle class="st0" cx="342.1" cy="110.7" r="3.1"/>
	


	
		<circle class="st0" cx="343.1" cy="119.9" r="2.1"/>
	


	
		<circle class="st0" cx="349.7" cy="114.1" r="2.3"/>
	


	
		<circle class="st0" cx="362.2" cy="137.8" r="2.2"/>
	


	
		<circle class="st0" cx="347" cy="145.5" r="2.2"/>
	


	
		<circle class="st0" cx="336.6" cy="96.2" r="2.4"/>
	


	
		<circle class="st0" cx="299" cy="21.7" r="4.8"/>
	


	
		<circle class="st0" cx="279.6" cy="18.3" r="4.6"/>
	


	
		<circle class="st0" cx="259.3" cy="16.3" r="6.5"/>
	


	
		<circle class="st0" cx="225.8" cy="11.5" r="7.9"/>
	


	
		<circle class="st0" cx="239" cy="16.3" r="3.8"/>
	


	
		<circle class="st0" cx="268.9" cy="24.2" r="4.2"/>
	


	
		<circle class="st0" cx="248.3" cy="19.4" r="3.4"/>
	


	
		<circle class="st0" cx="196.2" cy="16.3" r="3.8"/>
	


	
		<circle class="st0" cx="176.3" cy="16.9" r="6.3"/>
	


	
		<circle class="st0" cx="162.2" cy="24.2" r="4.2"/>
	


	
		<circle class="st0" cx="141.1" cy="38.3" r="7.3"/>
	


	
		<circle class="st0" cx="127.3" cy="52.9" r="2.8"/>
	


	
		<circle class="st0" cx="96.3" cy="61.5" r="10.4"/>
	

<g>

	
		
			<polygon class="st0" points="154.1,253.7 152.8,252.3 157.3,247.9 157.3,223.2 159.3,223.2 159.3,248.8 			"/>
		
	
	
		
			
				<polygon class="st0" points="349,468.9 348.4,376.4 335.5,365.7 336.8,364.1 350.4,375.4 351,468.9 				"/>
			
		
	
	
		
			
				<polygon class="st0" points="334.4,451.1 332.4,451 332.9,369.7 334.9,369.7 				"/>
			
		
	
	
		
			
				
					<rect x="336.7" y="370.3" transform="matrix(1 -3.103387e-03 3.103387e-03 1 -1.2885 1.0501)" class="st0" width="2" height="90.9"/>
			
		
	
	
		
			
				<rect x="316.9" y="403.5" class="st0" width="2" height="62.5"/>
			
		
	
	
		
			
				
					<rect x="303" y="435.9" transform="matrix(1 -2.513223e-03 2.513223e-03 1 -1.1413 0.7655)" class="st0" width="2" height="37.3"/>
			
		
	
	
		
			
				<polygon class="st0" points="327.9,468.9 327.6,395.2 324.8,388.7 326.7,387.9 329.6,394.8 329.9,468.9 				"/>
			
		
	
	
		
			
				<polygon class="st0" points="367.1,468.9 365.1,468.8 365.3,460.8 383.3,443.6 382.6,377.9 384.6,377.8 385.3,444.4 
					367.3,461.6 				"/>
			
		
	
	
		
			
				<polygon class="st0" points="405.6,404.4 405.5,402.4 438,402 464.1,376.3 520.2,376.3 520.2,378.3 464.9,378.3 438.8,404 				
					"/>
			
		
	
	
		
			
				<polygon class="st0" points="443.8,407.4 442.3,406.1 463.7,382.7 516.1,382.7 516.1,384.7 464.5,384.7 				"/>
			
		
	
	
		
			
				<polygon class="st0" points="448.3,408.9 446.8,407.6 464,387.9 514.8,387.7 514.8,389.7 464.9,389.9 				"/>
			
		
	
	
		
			
				<rect x="484" y="399.7" class="st0" width="21.7" height="2"/>
			
		
	
	
		
			
				<polygon class="st0" points="401.9,344.9 399.9,344.9 399.9,329.3 377.2,308 361.8,308 361.8,281.4 363.8,281.4 363.8,306 
					378,306 401.9,328.4 				"/>
			
		
	
	
		
			
				
					<rect x="367.4" y="323.1" transform="matrix(0.7169 -0.6971 0.6971 0.7169 -125.8593 350.2783)" class="st0" width="2" height="14.1"/>
			
		
	
	
		
			
				
					<rect x="384.5" y="329.3" transform="matrix(2.004314e-02 -0.9998 0.9998 2.004314e-02 41.4739 714.9597)" class="st0" width="2" height="14.1"/>
			
		
	
	
		
			
				
					<rect x="396.9" y="335.3" transform="matrix(0.9997 -2.538244e-02 2.538244e-02 0.9997 -8.4068 10.2334)" class="st0" width="4.1" height="2"/>
			
		
	
	
		
			
				<polygon class="st0" points="359.1,373.2 332.8,346.3 332.8,345.9 332.9,216.7 296.9,180.6 298.3,179.2 334.9,215.8 
					334.9,216.2 334.8,345.5 360.5,371.8 				"/>
			
		
	
	
		
			
				<polygon class="st0" points="527.9,340.1 421.8,339.8 370.9,289.9 370.9,205.7 346.5,182.3 347.9,180.9 372.9,204.8 372.9,289 
					422.7,337.8 527.9,338.1 				"/>
			
		
	
	
		
			
				<polygon class="st0" points="524.8,356.3 374.9,355.5 374.6,355.2 353.2,331.5 354.1,273.1 361.6,262.4 361.6,244.5 
					354.3,237.2 354.1,206.6 337.4,192.2 337.5,135.5 339.5,135.5 339.4,191.3 356,205.6 356.3,236.4 363.6,243.7 363.6,263 
					356,273.7 355.2,330.7 375.8,353.5 524.8,354.3 				"/>
			
		
	
	
		
			
				<polygon class="st0" points="375.5,360.6 348,332.8 348.8,267.3 356.3,258.7 356.3,247.1 348.8,240.1 349,209.3 322.5,184.4 
					322.9,107.7 324.9,107.7 324.5,183.5 351,208.5 350.8,239.3 358.3,246.2 358.3,259.4 350.8,268 350,332 376.3,358.6 
					524.5,358.1 524.5,360.1 				"/>
			
		
	
	
		
			
				<polygon class="st0" points="502.8,326.9 416,326.5 376.2,287.4 375.4,182.5 377.4,182.4 378.2,286.6 416.8,324.5 502.8,324.9 
									"/>
			
		
	
	
		
			
				<polygon class="st0" points="507.5,321.2 418.1,321.2 382.8,286.9 382.8,286.4 382.5,196.3 384.5,196.2 384.8,286 418.9,319.2 
					507.5,319.2 				"/>
			
		
	
	
		
			
				<polygon class="st0" points="533,312.6 421.3,312.6 393.3,284.4 393.3,284 392.9,239.8 394.9,239.7 395.3,283.6 422.1,310.6 
					533,310.6 				"/>
			
		
	
	
		
			
				
					<rect x="437.1" y="301.3" transform="matrix(1 -3.906220e-03 3.906220e-03 1 -1.1774 1.7947)" class="st0" width="43.5" height="2"/>
			
		
	
	
		
			
				<polygon class="st0" points="539.9,283.7 441.9,283.7 423.3,265.1 423,206.4 425,206.4 425.3,264.3 442.7,281.7 539.9,281.7 
									"/>
			
		
	
	
		
			
				<polygon class="st0" points="541.8,278.4 444.9,278.1 428.6,260 428.6,146.6 430.6,146.6 430.6,259.2 445.8,276.1 541.8,276.4 
									"/>
			
		
	
	
		
			
				<polygon class="st0" points="506.5,259.1 446.5,259.1 440.8,250.3 440.8,250 440.4,167.1 442.4,167.1 442.8,249.7 447.6,257.1 
					506.5,257.1 				"/>
			
		
	
	
		
			
				<polygon class="st0" points="478.3,252.9 471.6,245.4 473.1,244.1 479.2,250.9 503.1,250.7 503.2,252.7 				"/>
			
		
	
	
		
			
				<polygon class="st0" points="470.6,244.1 462.9,234.1 462,216.5 464,216.4 464.9,233.3 472.2,242.8 				"/>
			
		
	
	
		
			
				<polygon class="st0" points="414.9,288.4 401.9,275.6 401.7,246.8 411.9,237.4 411.7,193 413.7,193 413.9,238.3 403.7,247.6 
					403.9,274.8 415.7,286.4 539.9,286 539.9,288 				"/>
			
		
	
	
		
			
				<polygon class="st0" points="544,292.5 409.6,292.3 397.4,278.8 397.2,244.9 407.5,234.8 407.3,193.2 409.3,193.1 409.5,235.6 
					399.2,245.7 399.4,278 410.5,290.3 544,290.5 				"/>
			
		
	
	
		
			
				<polygon class="st0" points="394.5,237 392.5,237 392.6,209.1 399.5,199.7 401.1,200.9 394.6,209.7 				"/>
			
		
	
	
		
			
				<polygon class="st0" points="411.7,190.4 409.7,190.3 409.9,177.9 396.5,161.4 398.1,160.1 411.9,177.2 				"/>
			
		
	
	
		
			
				<polygon class="st0" points="397.2,160.4 396.2,158.6 399.8,156.5 399.8,136.5 396.1,132.4 397.6,131.1 401.8,135.7 
					401.8,157.7 				"/>
			
		
	
	
		
			
				<polygon class="st0" points="402.2,165.8 401.1,164.1 407.1,160.4 406.8,133.9 398.5,125.4 400,124 408.8,133 409.1,161.5 				
					"/>
			
		
	
	
		
			
				<polygon class="st0" points="406.6,171.1 405.4,169.5 413.7,163.4 414,132.8 402.6,119.8 404.1,118.4 416,132.1 415.7,164.4 
									"/>
			
		
	
	
		
			
				<polygon class="st0" points="470.2,250.7 446,250.6 445.6,193.2 447.6,193.1 448,248.6 469.3,248.6 471.7,245.9 473.2,247.2 
									"/>
			
		
	
	
		
			
				
					<rect x="525.1" y="237.3" transform="matrix(6.528474e-03 -1 1 6.528474e-03 271.0912 776.1076)" class="st0" width="2" height="28.7"/>
			
		
	
	
		
			
				<polygon class="st0" points="507.4,249.8 506,248.4 512.3,242.3 540.9,242.5 540.9,244.5 513.1,244.3 				"/>
			
		
	
	
		
			
				<polygon class="st0" points="535.9,203.7 523.8,202 514,194.3 515.2,192.7 524.6,200.1 536.2,201.7 				"/>
			
		
	
	
		
			
				<polygon class="st0" points="537.1,200 528.7,190.1 515.6,187.9 515.9,186 529.8,188.3 538.6,198.7 				"/>
			
		
	
	
		
			
				
					<rect x="509.6" y="181.2" transform="matrix(0.4897 -0.8719 0.8719 0.4897 105.6764 544.8858)" class="st0" width="17.4" height="2"/>
			
		
	
	
		
			
				<polygon class="st0" points="511.9,190.1 504.1,183.1 486.5,183.5 486.4,181.5 504.8,181.1 513.2,188.7 				"/>
			
		
	
	
		
			
				<polygon class="st0" points="513,187.5 507.6,179.3 501.2,178.6 501.4,176.6 508.8,177.4 514.7,186.4 				"/>
			
		
	
	
		
			
				<polygon class="st0" points="499.1,161.2 497.4,160.3 500.7,154.2 511.6,154.4 511.6,156.4 501.9,156.2 				"/>
			
		
	
	
		
			
				<polygon class="st0" points="497.1,160.5 491.3,149.9 485.5,149.8 485.5,147.8 492.5,148 498.8,159.6 				"/>
			
		
	
	
		
			
				<polygon class="st0" points="542.3,233.6 516.4,233.4 474,189.4 473.8,184.3 476.4,177.9 476.2,152.9 468.9,152.9 468.9,150.9 
					478.2,150.9 478.4,178.3 475.8,184.7 476,188.6 517.3,231.4 542.3,231.6 				"/>
			
		
	
	
		
			
				
					<rect x="463.6" y="144.3" transform="matrix(0.508 -0.8614 0.8614 0.508 100.5951 473.2559)" class="st0" width="2" height="8.5"/>
			
		
	
	
		
			
				
					<rect x="476.9" y="149.3" transform="matrix(0.9124 -0.4093 0.4093 0.9124 -19.3924 210.0053)" class="st0" width="8" height="2"/>
			
		
	
	
		
			
				<polygon class="st0" points="507.7,237.9 507.4,237.6 464.2,193.7 464.2,170.6 468.3,170.6 471.9,168.3 473,170 468.9,172.6 
					466.2,172.6 466.2,192.9 508.5,235.9 542.2,235.8 542.2,237.8 				"/>
			
		
	
	
		
			<polygon class="st0" points="365.1,168.4 363.7,167 387.8,143.2 387.8,107.4 352.1,73.6 353.5,72.1 389.8,106.6 389.8,144 			"/>
		
	
	
		
			<polygon class="st0" points="357.4,163.9 356,162.5 378.3,140.7 378.1,109.5 361.5,93.6 362.9,92.2 380.1,108.6 380.3,141.6 			
				"/>
		
	
	
		
			<polygon class="st0" points="372.9,155.3 371.4,154 383.1,141.1 383,109.9 357.7,85.6 359,84.2 385,109 385.1,141.9 			"/>
		
	
	
		
			<polygon class="st0" points="357.8,183.3 346,174.4 346.2,151.6 356.9,151.4 368.5,139.2 368.7,112.3 359.9,104.2 361.2,102.7 
				370.7,111.4 370.5,140.1 357.7,153.4 348.2,153.6 348,173.4 359,181.7 			"/>
		
	
	
		
			<rect x="371.8" y="175.8" transform="matrix(0.4145 -0.91 0.91 0.4145 60.4068 447.5373)" class="st0" width="12.4" height="2"/>
		
	
	
		
			
				<rect x="425.4" y="99.1" transform="matrix(0.6413 -0.7673 0.7673 0.6413 67.6807 367.0142)" class="st0" width="2" height="24"/>
		
	
	
		
			<polygon class="st0" points="421,121 378.3,79.5 378,52.4 374.4,52.2 374.5,50.2 380,50.5 380.3,78.6 422.4,119.5 			"/>
		
	
	
		
			<polygon class="st0" points="495.1,132.6 473.6,132.1 458,117.1 459.4,115.7 474.4,130.1 495.1,130.6 			"/>
		
	
	
		
			<polygon class="st0" points="495,129.2 478.7,128.6 458.7,110.1 460.1,108.6 479.5,126.7 495.1,127.2 			"/>
		
	
	
		
			<polygon class="st0" points="491,125.8 483.7,125 468.6,109.3 459,109.3 459,107.3 469.4,107.3 484.7,123.1 491.2,123.8 			"/>
		
	
	
		
			<polygon class="st0" points="491.6,119.4 483.9,119 467.2,100.3 453.8,100.1 453.8,98.1 468.1,98.3 484.8,117.1 491.7,117.4 			
				"/>
		
	
	
		
			<polygon class="st0" points="487,113.5 470.8,96.2 456,96 456,94 471.7,94.2 488.5,112.1 			"/>
		
	
	
		
			<rect x="450.9" y="78.5" class="st0" width="2" height="17.5"/>
		
	
	
		
			
				<rect x="425.2" y="83.9" transform="matrix(1.171795e-02 -0.9999 0.9999 1.171795e-02 351.2882 525.303)" class="st0" width="32.5" height="2"/>
		
	
	
		
			<polygon class="st0" points="415.9,68.4 413.9,68.3 414.3,55.2 418.9,52.3 420,54 416.3,56.3 			"/>
		
	
	
		
			
				<rect x="409.7" y="50.1" transform="matrix(0.9999 -1.014189e-02 1.014189e-02 0.9999 -0.5814 4.1683)" class="st0" width="2" height="18.6"/>
		
	
	
		
			<polygon class="st0" points="416.2,103.5 415.8,98.4 395.2,78.9 395,48 397,48 397.2,78 417.8,97.5 418.2,103.4 			"/>
		
	
	
		
			<polygon class="st0" points="416.5,104.1 390.3,79.1 390.6,44.1 392.6,44.1 392.3,78.2 417.8,102.7 			"/>
		
	
	
		
			
				<rect x="425.7" y="79.5" transform="matrix(0.6709 -0.7416 0.7416 0.6709 79.5298 343.4311)" class="st0" width="2" height="5.3"/>
		
	
	
		
			
				<rect x="369.3" y="30.1" transform="matrix(1.314235e-02 -0.9999 0.9999 1.314235e-02 329.982 405.1597)" class="st0" width="2" height="10.7"/>
		
	
	
		
			<polygon class="st0" points="370.3,68.9 368.3,68.9 368.5,55.2 364.3,55.2 364.3,53.2 370.6,53.2 			"/>
		
	
	
		
			<polygon class="st0" points="359.5,67.6 359.1,50.8 355.3,50.6 355.4,48.6 361.1,48.9 361.5,67.6 			"/>
		
	
	
		
			<polygon class="st0" points="344.1,62.1 342.1,62.1 342.2,52.6 349.1,46.7 349.4,34.6 362,34.8 361.9,36.8 351.4,36.6 
				351.1,47.6 344.2,53.5 			"/>
		
	
	
		
			<polygon class="st0" points="338.7,60.3 336.7,60.2 337.5,48.8 344.9,41.3 344.6,30.9 335.5,27 336.3,25.1 346.6,29.6 
				346.9,42.1 339.4,49.7 			"/>
		
	
	
		
			<polygon class="st0" points="347.8,146.2 346.3,144.9 351.4,138.6 351.8,129.3 342.2,119.7 343.7,118.3 353.8,128.6 353.4,139.3 
							"/>
		
	
	
		
			<polygon class="st0" points="361.4,137.7 354.3,130.3 354.3,120.3 349,114.8 350.4,113.4 356.3,119.5 356.3,129.5 362.8,136.3 
							"/>
		
	
	
		
			<polygon class="st0" points="340,110 304.8,76.3 304.6,39.7 320.5,23.5 322,24.9 306.6,40.5 306.8,75.5 341.4,108.5 			"/>
		
	
	
		
			<polygon class="st0" points="316.1,54.8 314.1,54.7 314.5,40.7 330.9,25.7 332.2,27.2 316.5,41.6 			"/>
		
	
	
		
			<polygon class="st0" points="335.9,96.9 312.5,75 312.5,61.1 314.5,61.1 314.5,74.2 337.3,95.4 			"/>
		
	
	
		
			<rect x="294.3" y="22" class="st0" width="2" height="70.9"/>
		
	
	
		
			<polygon class="st0" points="279.9,70.2 278.4,68.9 289.7,56.4 289.6,23 297,22.8 297.1,24.8 291.6,24.9 291.7,57.1 			"/>
		
	
	
		
			<polygon class="st0" points="274.7,67.3 273.2,65.9 285.4,52.7 285.4,52.5 286.5,20.8 299,20.7 299,22.7 288.4,22.8 287.3,53.5 
							"/>
		
	
	
		
			<polygon class="st0" points="263.2,65.2 261.8,63.8 279.7,44.8 279.9,18.7 281.9,18.7 281.7,45.6 			"/>
		
	
	
		
			<polygon class="st0" points="253.1,59.4 251.7,58 269.3,40.3 269.7,24 271.7,24.1 271.3,41.1 			"/>
		
	
	
		
			<polygon class="st0" points="245.6,43.9 244.2,42.4 258,29.8 258.3,16.3 260.3,16.4 260,30.7 			"/>
		
	
	
		
			<polygon class="st0" points="293.4,165.3 291.4,165.3 291.7,127.1 274.8,111.2 274.8,80.9 276.8,80.9 276.8,110.4 293.7,126.3 
							"/>
		
	
	
		
			<polygon class="st0" points="298.7,153.6 296.7,153.6 296.7,124 280.4,107.5 280.1,89.5 282.1,89.5 282.3,106.7 298.7,123.2 			
				"/>
		
	
	
		
			<polygon class="st0" points="305.6,159.9 303.6,159.9 303.6,122.2 284.6,103.3 284.8,74 286.8,74.1 286.6,102.5 305.6,121.4 			
				"/>
		
	
	
		
			<polygon class="st0" points="282.4,168.4 282.3,133.7 263,113 263,86.9 265,86.9 265,112.2 284.2,132.9 284.4,168.4 			"/>
		
	
	
		
			<polygon class="st0" points="322.3,352 320.3,351.9 320.8,222.8 253.3,155.1 252.9,84.9 254.9,84.9 255.2,154.3 322.8,222 			"/>
		
	
	
		
			<polygon class="st0" points="313.4,357.8 311.4,357.8 312,228.1 242.6,160 242.1,100.9 244.1,100.9 244.5,159.1 314,227.3 			"/>
		
	
	
		
			<rect x="299" y="238.4" class="st0" width="2" height="136.5"/>
		
	
	
		
			<rect x="303.5" y="236.9" class="st0" width="2" height="138.5"/>
		
	
	
		
			
				<rect x="282.9" y="339.4" transform="matrix(1 -9.744988e-03 9.744988e-03 1 -3.4812 2.7837)" class="st0" width="2" height="38.5"/>
		
	
	
		
			
				<rect x="278.9" y="328.1" transform="matrix(1 -1.958620e-03 1.958620e-03 1 -0.689 0.5489)" class="st0" width="2" height="47.9"/>
		
	
	
		
			<polygon class="st0" points="277.9,378 271.8,372.8 271.8,336.3 273.8,336.3 273.8,371.9 279.2,376.4 			"/>
		
	
	
		
			
				<rect x="281.4" y="192.2" transform="matrix(0.7127 -0.7014 0.7014 0.7127 -71.144 260.4458)" class="st0" width="2" height="49.8"/>
		
	
	
		
			<polygon class="st0" points="272,242.3 270,242.2 270.4,231.6 231,194.2 232.4,192.7 272.4,230.7 			"/>
		
	
	
		
			<polygon class="st0" points="267,305.7 265.6,304.3 276,294.1 275.7,281.4 277.7,281.4 278,294.9 			"/>
		
	
	
		
			<polygon class="st0" points="264.9,266.2 255.7,255.3 255.5,227.9 257.5,227.9 257.7,254.5 266.5,265 			"/>
		
	
	
		
			<polygon class="st0" points="246.8,250.7 225.1,229.8 224.7,211.4 205.8,194 205.9,107.6 207.9,107.6 207.8,193.1 226.7,210.5 
				227.1,228.9 248.2,249.3 			"/>
		
	
	
		
			<polygon class="st0" points="301.1,237 299.1,237 299.1,227.6 232.1,161.2 232.2,72.8 234.2,72.8 234.1,160.4 301.1,226.8 			"/>
		
	
	
		
			<polygon class="st0" points="261.7,200.9 255.1,200.7 230.7,174.6 222.5,173.8 222.3,77.3 224.3,77.3 224.5,172 231.6,172.7 
				256,198.7 261.8,198.9 			"/>
		
	
	
		
			<polygon class="st0" points="267.6,379.4 260.6,379.3 260.6,377.3 265.6,377.4 265.4,326.6 289.4,304.2 289.4,234.4 259.1,201.9 
				260.6,200.5 291.4,233.6 291.4,305.1 267.4,327.5 267.4,327.6 			"/>
		
	
	
		
			<polygon class="st0" points="260.1,377.1 258.1,377.1 258.5,278.6 200.7,221 200.3,148.7 202.3,148.7 202.7,220.1 260.5,277.8 
							"/>
		
	
	
		
			<polygon class="st0" points="248.5,361.2 244.1,356.5 244.1,285.5 188.9,231.1 188.7,174.4 174.3,159.5 175.8,158.1 190.7,173.6 
				190.9,230.3 246.1,284.7 246.1,355.7 250,359.9 			"/>
		
	
	
		
			<polygon class="st0" points="245.5,376.4 243.5,376.3 243.9,360.6 249.9,360.6 249.9,362.6 245.8,362.6 			"/>
		
	
	
		
			<polygon class="st0" points="229.8,374.2 215.5,373.2 214.6,336.2 216.6,336.2 217.5,371.3 229.9,372.2 			"/>
		
	
	
		
			<rect x="214.6" y="310.2" class="st0" width="2" height="24.8"/>
		
	
	
		
			
				<rect x="195.4" y="351.5" transform="matrix(0.669 -0.7433 0.7433 0.669 -202.7841 265.2825)" class="st0" width="2" height="17.7"/>
		
	
	
		
			
				<rect x="160.2" y="303.4" transform="matrix(0.778 -0.6283 0.6283 0.778 -164.696 172.1672)" class="st0" width="2" height="31.4"/>
		
	
	
		
			<rect x="172" y="318.9" class="st0" width="2" height="13.3"/>
		
	
	
		
			<polygon class="st0" points="185.9,352 185.7,319 190.6,319.3 190.5,272.7 192.5,272.7 192.6,321.5 187.7,321.1 187.9,351.9 			
				"/>
		
	
	
		
			
				<rect x="172.4" y="311.6" transform="matrix(1.074157e-02 -0.9999 0.9999 1.074157e-02 -115.938 508.0135)" class="st0" width="52.8" height="2"/>
		
	
	
		
			<polygon class="st0" points="204.9,365.3 202.9,365.3 203.3,307.5 205.5,307.3 205.9,290.5 207.9,290.6 207.5,309 205.3,309.3 
							"/>
		
	
	
		
			<polygon class="st0" points="230.8,356.5 228.8,356.4 229.6,290.4 178.7,240 180.1,238.6 231.6,289.6 			"/>
		
	
	
		
			<polygon class="st0" points="183.4,240.6 181.4,240.6 181.4,182.3 163.5,164 164.9,162.6 183.4,181.5 			"/>
		
	
	
		
			<polygon class="st0" points="177,238.2 176.5,184.7 151.7,158.5 153.2,157.2 178.5,183.9 179,238.2 			"/>
		
	
	
		
			<polygon class="st0" points="172.7,239 171.8,187.8 152.8,169.1 154.2,167.7 173.8,186.9 174.7,238.9 			"/>
		
	
	
		
			<polygon class="st0" points="144.4,283.6 143,282.2 171.6,253.5 172,241.4 174,241.4 173.6,254.4 			"/>
		
	
	
		
			<polygon class="st0" points="129.1,285.7 127.7,284.2 164.3,251.1 164.5,218.7 166.5,218.7 166.3,252 			"/>
		
	
	
		
			
				<rect x="112.2" y="267.7" transform="matrix(0.7478 -0.6639 0.6639 0.7478 -144.1408 157.9144)" class="st0" width="47.2" height="2"/>
		
	
	
		
			<polygon class="st0" points="152.5,253 152.3,230.6 110.1,189.7 111.5,188.3 154.3,229.7 154.5,253 			"/>
		
	
	
		
			<polygon class="st0" points="129.3,247.4 118.9,237.3 118.7,226.1 110.8,219.4 112.1,217.9 120.7,225.2 120.8,236.5 130.7,246 
							"/>
		
	
	
		
			<polygon class="st0" points="115.8,280.3 114.5,278.9 137.8,257.3 138.2,229.5 111.7,207.8 113,206.3 140.2,228.6 139.8,258.2 
							"/>
		
	
	
		
			<polygon class="st0" points="92.8,278.7 92.8,278.4 92.4,166.5 94.4,166.5 94.8,278.7 			"/>
		
	
	
		
			<polygon class="st0" points="88.3,276.1 87.7,209.1 82.9,204.2 84.3,202.8 89.7,208.3 90.3,276.1 			"/>
		
	
	
		
			<polygon class="st0" points="80.7,279.9 80.7,226.4 82.7,226.4 82.7,277.8 87.1,277.6 87.2,279.6 			"/>
		
	
	
		
			<polygon class="st0" points="65.9,261.5 63.9,261.5 64,211.9 71.3,212.8 71,214.8 66,214.2 			"/>
		
	
	
		
			<rect x="63.8" y="89.5" class="st0" width="2" height="171.9"/>
		
	
	
		
			<polygon class="st0" points="155.2,192.7 140.6,177.2 140.6,154.1 158.7,137 173.3,136.8 173.4,138.8 159.5,139 142.6,154.9 
				142.6,176.4 156.6,191.3 			"/>
		
	
	
		
			<polygon class="st0" points="154.6,208.8 132.9,183.9 133.1,149.7 157,130.2 172.2,130 172.2,132 157.8,132.2 135.1,150.6 
				134.9,183.2 156.1,207.5 			"/>
		
	
	
		
			<polygon class="st0" points="125.1,133 123.6,131.6 151.9,102.4 182.8,102.2 202.4,120.9 201,122.4 182,104.2 152.8,104.4 			"/>
		
	
	
		
			<polygon class="st0" points="191.9,128.3 180.2,114.9 157.3,115.5 151.9,123 150.3,121.8 156.3,113.5 181.1,112.9 193.4,127 			
				"/>
		
	
	
		
			<polygon class="st0" points="250.1,361.6 249,359.9 253.4,356.9 253.6,282.2 195.8,224.2 196.1,134.7 198.1,134.7 197.8,223.3 
				255.6,281.3 255.4,357.9 			"/>
		
	
	
		
			
				<rect x="162.4" y="272.4" transform="matrix(0.7863 -0.6178 0.6178 0.7863 -132.7055 163.096)" class="st0" width="14.1" height="2"/>
		
	
	
		
			<polygon class="st0" points="246.4,227.3 210.6,193.2 210.1,141.5 212.1,141.5 212.6,192.3 247.8,225.8 			"/>
		
	
	
		
			<polygon class="st0" points="200.8,94.5 199.3,93.1 226.6,65.7 227.2,39 247.6,18.7 249,20.1 229.1,39.8 228.6,66.5 			"/>
		
	
	
		
			<polygon class="st0" points="187.6,88.6 186.3,87.1 215.2,61.5 215.7,35 237.1,15.8 238.4,17.3 217.7,35.9 217.1,62.4 			"/>
		
	
	
		
			
				<rect x="171.2" y="70.4" transform="matrix(0.7173 -0.6968 0.6968 0.7173 2.479 148.9546)" class="st0" width="27.2" height="2"/>
		
	
	
		
			<polygon class="st0" points="200.1,50.6 200,48.6 205.2,48.2 205.2,29.8 223.7,12.8 225.1,14.3 207.2,30.7 207.2,50.1 			"/>
		
	
	
		
			<polygon class="st0" points="97.9,157.2 96.4,155.9 109.3,141.5 109.1,88.6 160.7,36.2 161.3,25.9 163.3,26 162.7,37 162.4,37.3 
				111.1,89.4 111.3,142.3 			"/>
		
	
	
		
			<polygon class="st0" points="89.7,150.4 88.2,149.1 99.7,135.7 99.5,79.2 126.6,52.2 128,53.6 101.5,80 101.7,136.5 			"/>
		
	
	
		
			<polygon class="st0" points="80.7,137.8 79.4,136.3 89.9,126.5 90.3,84.9 92.3,84.9 91.9,127.3 			"/>
		
	
	
		
			<rect x="70.6" y="71.5" transform="matrix(0.749 -0.6626 0.6626 0.749 -27.0169 73.5928)" class="st0" width="26.1" height="2"/>
		
	
	
		
			
				<rect x="-16.9" y="167.1" transform="matrix(2.929675e-03 -1 1 2.929675e-03 -109.6038 226.2569)" class="st0" width="151.1" height="2"/>
		
	
	
		
			<rect x="47.1" y="136.7" class="st0" width="2" height="116"/>
		
	
	
		
			<polygon class="st0" points="42.1,235.8 41.5,167.5 33.4,167.9 33.3,165.9 43.5,165.5 44.1,235.8 			"/>
		
	
	
		
			
				<rect x="18.4" y="152.8" transform="matrix(0.9999 -1.492690e-02 1.492690e-02 0.9999 -2.4663 0.3084)" class="st0" width="2" height="25.2"/>
		
	
	
		
			<rect x="13.2" y="184.5" class="st0" width="2" height="20.6"/>
		
	
	
		
			<rect x="25.3" y="138" transform="matrix(1 -7.443935e-03 7.443935e-03 1 -1.3546 0.201)" class="st0" width="2" height="88.2"/>
		
	
	
		
			<rect x="46.8" y="103.6" class="st0" width="2" height="28.7"/>
		
	
	
		
			<rect x="42.1" y="106.6" class="st0" width="2" height="28"/>
		
	
	
		
			<polygon class="st0" points="113.1,162.6 111.6,161.4 116.6,154.9 116.8,94.9 154.5,59.7 155.8,61.2 118.8,95.8 118.6,155.6 			
				"/>
		
	
	
		
			<polygon class="st0" points="137.5,94.5 136.1,93 156.8,72.8 169.6,72.9 192.8,49 199.2,48.6 199.3,50.6 193.7,50.9 170.4,75 
				157.6,74.8 			"/>
		
	
	
		
			
				<rect x="125.5" y="105.1" transform="matrix(0.7617 -0.6479 0.6479 0.7617 -37.1664 111.1485)" class="st0" width="14" height="2"/>
		
	
	
		
			<polygon class="st0" points="182.3,41.2 180.9,39.9 194.3,25.3 194.9,17 196.9,17.1 196.3,26.1 			"/>
		
	
	
		<rect x="78.9" y="152" transform="matrix(0.7546 -0.6562 0.6562 0.7546 -83.8636 91.103)" class="st0" width="2" height="11.4"/>
	
	
		<rect x="75.1" y="118.4" class="st0" width="2" height="34.9"/>
	
	
		<polygon class="st0" points="77.9,189 76.8,187.3 81.9,184 82.6,162 84.6,162 83.9,185.1 		"/>
	
	
		
			<rect x="358.8" y="375.1" transform="matrix(1 -4.474043e-03 4.474043e-03 1 -1.8854 1.6138)" class="st0" width="2" height="94.3"/>
	
	
		
			<rect x="366.7" y="418.4" transform="matrix(3.906220e-03 -1 1 3.906220e-03 -29.2138 809.5317)" class="st0" width="50.1" height="2"/>
	
	
		<polygon class="st0" points="459,413 457.2,412.1 463.9,399.4 476.5,399.8 476.5,401.8 465.1,401.4 		"/>
	
	
		<polygon class="st0" points="426.6,393.5 408.9,393.5 393.5,377.9 383.2,377.9 383.2,375.9 394.3,375.9 409.7,391.5 425.8,391.5 
			440.3,377 441.7,378.4 		"/>
	

</g>

	
		<circle class="st0" cx="73.2" cy="83.9" r="5.6"/>
	


	
		<circle class="st0" cx="55.7" cy="92.6" r="4.6"/>
	


	
		<circle class="st0" cx="64.8" cy="89.5" r="2.8"/>
	


	
		<circle class="st0" cx="42.5" cy="103.4" r="6.7"/>
	


	
		<circle class="st0" cx="47.6" cy="135.7" r="7.6"/>
	


	
		<circle class="st0" cx="17.7" cy="150.9" r="6.9"/>
	


	
		<circle class="st0" cx="26" cy="138" r="3.3"/>
	


	
		<circle class="st0" cx="33.3" cy="166.9" r="6.7"/>
	


	
		<circle class="st0" cx="13.2" cy="178.7" r="9.5"/>
	


	
		<circle class="st0" cx="14.2" cy="208.2" r="5.6"/>
	


	
		<circle class="st0" cx="26.7" cy="226.2" r="7.5"/>
	


	
		<circle class="st0" cx="40" cy="236.3" r="4.9"/>
	


	
		<circle class="st0" cx="44.9" cy="252.1" r="5.4"/>
	


	
		<circle class="st0" cx="52.3" cy="261.7" r="2.9"/>
	


	
		<circle class="st0" cx="55.7" cy="243.5" r="4.1"/>
	


	
		<circle class="st0" cx="65.2" cy="264.6" r="5.9"/>
	


	
		<circle class="st0" cx="88.2" cy="279.7" r="8.1"/>
	


	
		<circle class="st0" cx="116.3" cy="282.5" r="4.8"/>
	


	
		<circle class="st0" cx="143.2" cy="284.4" r="4.5"/>
	


	
		<circle class="st0" cx="128.4" cy="284.9" r="3"/>
	


	
		<circle class="st0" cx="155.3" cy="302.2" r="8"/>
	


	
		<circle class="st0" cx="173.7" cy="334.3" r="6.7"/>
	


	
		<circle class="st0" cx="188.9" cy="353.6" r="6.1"/>
	


	
		<circle class="st0" cx="196.2" cy="339.7" r="4.8"/>
	


	
		<circle class="st0" cx="215.6" cy="335" r="6"/>
	


	
		<circle class="st0" cx="215.6" cy="310.2" r="4.1"/>
	


	
		<circle class="st0" cx="203" cy="366.2" r="3.5"/>
	


	
		<circle class="st0" cx="229.7" cy="357.8" r="4.4"/>
	


	
		<circle class="st0" cx="229.7" cy="374.7" r="4.4"/>
	


	
		<circle class="st0" cx="257.4" cy="377.9" r="5.8"/>
	


	
		<circle class="st0" cx="280.8" cy="377.9" r="5.1"/>
	


	
		<circle class="st0" cx="301.9" cy="376.3" r="4.7"/>
	


	
		<circle class="st0" cx="312.4" cy="357.8" r="2.8"/>
	


	
		<circle class="st0" cx="285.9" cy="339.7" r="4.8"/>
	


	
		<circle class="st0" cx="279.2" cy="326.9" r="3.6"/>
	


	
		<circle class="st0" cx="272.8" cy="336.3" r="3.9"/>
	


	
		<circle class="st0" cx="276.7" cy="281.4" r="4.4"/>
	


	
		<circle class="st0" cx="265.7" cy="306.1" r="3.3"/>
	


	
		<circle class="st0" cx="300.1" cy="237" r="5.8"/>
	


	
		<circle class="st0" cx="265.7" cy="265.6" r="4.1"/>
	


	
		<circle class="st0" cx="247.9" cy="251" r="3.7"/>
	


	
		<circle class="st0" cx="246.2" cy="228.1" r="3.1"/>
	


	
		<circle class="st0" cx="255.4" cy="228.1" r="2.3"/>
	


	
		<circle class="st0" cx="186.7" cy="320" r="2.3"/>
	


	
		<circle class="st0" cx="191.5" cy="272.7" r="3.5"/>
	


	
		<circle class="st0" cx="199.1" cy="286.2" r="3.1"/>
	


	
		<circle class="st0" cx="206.9" cy="290.6" r="2.6"/>
	


	
		<circle class="st0" cx="175" cy="268.4" r="2.5"/>
	


	
		<circle class="st0" cx="306.8" cy="96.2" r="5.7"/>
	


	
		<circle class="st0" cx="278.5" cy="70.6" r="3.1"/>
	


	
		<circle class="st0" cx="273.1" cy="66.7" r="2.2"/>
	


	
		<circle class="st0" cx="262.5" cy="64.5" r="1.6"/>
	


	
		<circle class="st0" cx="251.8" cy="59.4" r="2.1"/>
	


	
		<circle class="st0" cx="244.9" cy="43.1" r="3.4"/>
	


	
		<circle class="st0" cx="245.6" cy="78.6" r="4"/>
	


	
		<circle class="st0" cx="279.6" cy="87.9" r="3.8"/>
	


	
		<circle class="st0" cx="269.8" cy="100.9" r="2.5"/>
	


	
		<circle class="st0" cx="264.1" cy="84.9" r="4.8"/>
	


	
		<circle class="st0" cx="293.3" cy="92.6" r="2.9"/>
	


	
		<circle class="st0" cx="303.6" cy="160.5" r="3.9"/>
	


	
		<circle class="st0" cx="292.5" cy="165.8" r="2.5"/>
	


	
		<circle class="st0" cx="283.3" cy="169.8" r="3.2"/>
	


	
		<circle class="st0" cx="267.3" cy="139.5" r="7.1"/>
	


	
		<circle class="st0" cx="253.9" cy="84.9" r="2.9"/>
	


	
		<circle class="st0" cx="321.3" cy="351.9" r="4.4"/>
	


	
		<circle class="st0" cx="249.3" cy="360.6" r="2.2"/>
	


	
		<circle class="st0" cx="76.1" cy="118.4" r="2.7"/>
	


	
		<circle class="st0" cx="91.3" cy="84.9" r="4"/>
	


	
		<circle class="st0" cx="80.1" cy="137" r="2.7"/>
	


	
		<circle class="st0" cx="76.1" cy="153.4" r="2.3"/>
	


	
		<circle class="st0" cx="93.4" cy="166.5" r="3.8"/>
	


	
		<circle class="st0" cx="83.6" cy="203.5" r="4.7"/>
	


	
		<circle class="st0" cx="112.3" cy="176.8" r="4.9"/>
	


	
		<circle class="st0" cx="112.3" cy="207" r="4.9"/>
	


	
		<circle class="st0" cx="98.3" cy="194.7" r="4.1"/>
	


	
		<circle class="st0" cx="77.3" cy="188.2" r="4"/>
	


	
		<circle class="st0" cx="71.1" cy="213.8" r="3"/>
	


	
		<circle class="st0" cx="109" cy="252.1" r="3.4"/>
	


	
		<circle class="st0" cx="127.2" cy="254.7" r="2.8"/>
	


	
		<circle class="st0" cx="153.5" cy="253" r="1.6"/>
	


	
		<circle class="st0" cx="155.3" cy="208.2" r="3.8"/>
	


	
		<circle class="st0" cx="158.3" cy="223.2" r="2.5"/>
	


	
		<circle class="st0" cx="165.5" cy="218.7" r="2"/>
	


	
		<circle class="st0" cx="177.6" cy="239.4" r="7.3"/>
	


	
		<circle class="st0" cx="158.3" cy="60.9" r="5.9"/>
	


	
		<circle class="st0" cx="124.3" cy="132.3" r="2.8"/>
	


	
		<circle class="st0" cx="97.1" cy="156.5" r="2.3"/>
	


	
		<circle class="st0" cx="89" cy="149.8" r="2.3"/>
	


	
		<circle class="st0" cx="152.5" cy="157.9" r="3.3"/>
	


	
		<circle class="st0" cx="172.5" cy="136.4" r="7.6"/>
	


	
		<circle class="st0" cx="172.5" cy="95.5" r="4.5"/>
	


	
		<circle class="st0" cx="206.9" cy="107.6" r="4.3"/>
	


	
		<circle class="st0" cx="164.2" cy="163.3" r="2.3"/>
	


	
		<circle class="st0" cx="175" cy="158.8" r="2"/>
	


	
		<circle class="st0" cx="153.5" cy="168.4" r="2.3"/>
	


	
		<circle class="st0" cx="230.3" cy="192.2" r="4"/>
	


	
		<circle class="st0" cx="243.1" cy="100.9" r="2.5"/>
	


	
		<circle class="st0" cx="192.4" cy="93.8" r="1.7"/>
	


	
		<circle class="st0" cx="187" cy="87.9" r="2.6"/>
	


	
		<circle class="st0" cx="175" cy="80.9" r="2"/>
	


	
		<circle class="st0" cx="200" cy="49.6" r="3.4"/>
	


	
		
			<ellipse transform="matrix(0.1602 -0.9871 0.9871 0.1602 102.8198 244.2203)" class="st0" cx="194.9" cy="61.7" rx="2.8" ry="2.8"/>
	


	
		<circle class="st0" cx="136.8" cy="93.8" r="2.4"/>
	


	
		<circle class="st0" cx="127.2" cy="110.7" r="2.9"/>
	


	
		<circle class="st0" cx="138.4" cy="100.9" r="2.7"/>
	


	
		<circle class="st0" cx="155.8" cy="193.1" r="3.1"/>
	


	
		<circle class="st0" cx="111.5" cy="218.7" r="4.5"/>
	


	
		<circle class="st0" cx="80.1" cy="226.2" r="2.7"/>
	


	
		<circle class="st0" cx="262.4" cy="198.8" r="4.7"/>
	


	
		<circle class="st0" cx="200" cy="93.8" r="3"/>
	


	
		<circle class="st0" cx="271" cy="242.3" r="2.9"/>
	


	
		<circle class="st0" cx="130" cy="246.7" r="2.9"/>
	


	
		<circle class="st0" cx="223.3" cy="77.3" r="1.6"/>
	


	
		<circle class="st0" cx="233.2" cy="72.8" r="1.7"/>
	


	
		<path class="st0" d="M203.4,148.7c0,1.1-0.9,2.1-2.1,2.1c-1.1,0-2.1-0.9-2.1-2.1c0-1.1,0.9-2.1,2.1-2.1
			C202.5,146.6,203.4,147.5,203.4,148.7z"/>
	


	
		<circle class="st0" cx="244.5" cy="377.1" r="2.2"/>
	


	
		
			<rect x="228.8" y="359.1" transform="matrix(0.9999 -1.335203e-02 1.335203e-02 0.9999 -4.868 3.1003)" class="st0" width="2" height="14.1"/>
	


	
		<circle class="st0" cx="173" cy="318.9" r="2.7"/>
	


	
		<circle class="st0" cx="110.8" cy="189" r="2.3"/>
	


	
		<circle class="st0" cx="100.7" cy="184.1" r="2.5"/>
	


	
		<circle class="st0" cx="83.6" cy="162" r="2.8"/>
	


	
		<circle class="st0" cx="112.3" cy="162" r="3.2"/>
	


	
		
			<ellipse transform="matrix(0.5257 -0.8507 0.8507 0.5257 -32.4427 186.5799)" class="st0" cx="151.1" cy="122.4" rx="2.9" ry="2.9"/>
	


	
		<circle class="st0" cx="192.7" cy="127.6" r="2.6"/>
	


	
		<circle class="st0" cx="201.7" cy="122.4" r="2.6"/>
	


	
		<path class="st0" d="M199.3,134.7c0,1.2-1,2.2-2.2,2.2c-1.2,0-2.2-1-2.2-2.2c0-1.2,1-2.2,2.2-2.2
			C198.3,132.5,199.3,133.5,199.3,134.7z"/>
	


	
		<circle class="st0" cx="163.9" cy="277.8" r="2.8"/>
	


	
		<circle class="st0" cx="211.1" cy="141.5" r="2.4"/>
	


	
		<circle class="st0" cx="181.6" cy="40.5" r="2.6"/>
	


	<circle class="st0" cx="304" cy="473.2" r="2.9"/>


	<circle class="st0" cx="337.7" cy="461.9" r="2.4"/>


	<circle class="st0" cx="360.5" cy="469.5" r="2.4"/>


	<circle class="st0" cx="366.3" cy="470.3" r="3.8"/>


	<circle class="st0" cx="454.9" cy="414.5" r="7"/>

<circle class="st0" cx="275.4" cy="81.5" r="2.6"/>
<circle class="st0" cx="286.1" cy="74.5" r="2.8"/>
</svg>
